<svg width="100" height="100" viewBox="0 0 100 100" fill="none" xmlns="http://www.w3.org/2000/svg">
<g clip-path="url(#clip0_6530_314)">
<path d="M38.2348 74.8009C38.2348 74.8009 34.84 76.7751 40.6509 77.4432C47.6909 78.2462 51.2887 78.1312 59.0469 76.6627C59.0469 76.6627 61.0867 77.9417 63.935 79.0495C46.5437 86.5032 24.5746 78.6177 38.2348 74.8009ZM36.1096 65.0742C36.1096 65.0742 32.3019 67.8929 38.1173 68.4943C45.6375 69.2701 51.5763 69.3336 61.853 67.3548C61.853 67.3548 63.2744 68.7958 65.5095 69.5839C44.482 75.7326 21.0614 70.0688 36.1096 65.0742Z" fill="#5382A1"/>
<path d="M54.0262 48.5745C58.3116 53.5081 52.9004 57.9478 52.9004 57.9478C52.9004 57.9478 63.7812 52.3308 58.7841 45.2967C54.117 38.7374 50.5377 35.4779 69.9138 24.2407C69.9138 24.2407 39.4999 31.8368 54.0262 48.5745Z" fill="#E76F00"/>
<path d="M77.027 81.9949C77.027 81.9949 79.5394 84.0648 74.2601 85.6663C64.2216 88.7074 32.4784 89.6257 23.6602 85.7874C20.4904 84.4087 26.4349 82.4949 28.3047 82.0931C30.2547 81.6703 31.3693 81.7492 31.3693 81.7492C27.844 79.2657 8.58346 86.6254 21.586 88.7329C57.0452 94.4834 86.2246 86.1437 77.027 81.9949ZM39.8672 54.996C39.8672 54.996 23.7209 58.8312 34.1496 60.2236C38.5528 60.8131 47.3306 60.6799 55.507 59.9946C62.1892 59.4313 68.899 58.2327 68.899 58.2327C68.899 58.2327 66.5428 59.2417 64.8381 60.4057C48.4416 64.7181 16.7663 62.712 25.8852 58.3008C33.5971 54.5731 39.8672 54.996 39.8672 54.996ZM68.8323 71.1863C85.5005 62.525 77.7938 54.2017 72.4147 55.3232C71.0962 55.5974 70.5084 55.8351 70.5084 55.8351C70.5084 55.8351 70.9979 55.0685 71.9327 54.7367C82.5741 50.9954 90.7582 65.7709 68.4974 71.6228C68.4974 71.623 68.7554 71.3926 68.8323 71.1863Z" fill="#5382A1"/>
<path d="M58.7844 6.09547C58.7844 6.09547 68.0154 15.3299 50.0292 29.529C35.6063 40.9194 46.7403 47.4138 50.0233 54.834C41.6043 47.2382 35.4257 40.5513 39.5709 34.328C45.6546 25.1921 62.5088 20.7632 58.7844 6.09547Z" fill="#E76F00"/>
<path d="M41.5054 94.6567C57.5045 95.681 82.0729 94.0885 82.6548 86.5181C82.6548 86.5181 81.5363 89.3882 69.4323 91.6672C55.7768 94.2369 38.9347 93.937 28.9453 92.2899C28.9456 92.2899 30.99 93.9825 41.5054 94.6567Z" fill="#5382A1"/>
</g>
<defs>
<clipPath id="clip0_6530_314">
<rect width="65.8497" height="89" fill="white" transform="translate(17 6)"/>
</clipPath>
</defs>
</svg>
