<svg width="100" height="100" viewBox="0 0 100 100" fill="none" xmlns="http://www.w3.org/2000/svg">
<path d="M49.9998 90.2503C48.9138 90.2508 47.8469 89.9652 46.9063 89.4223L37.0623 83.5947C35.5932 82.7725 36.309 82.4821 36.7949 82.3125C38.3574 81.8298 39.8535 81.1537 41.2483 80.3C41.365 80.246 41.4936 80.2226 41.6219 80.2322C41.7502 80.2417 41.874 80.2839 41.9814 80.3546L49.5455 84.8482C49.6864 84.9227 49.8433 84.9617 50.0027 84.9617C50.162 84.9617 50.3189 84.9227 50.4598 84.8482L79.9573 67.8225C80.0953 67.7398 80.2095 67.6226 80.2886 67.4825C80.3678 67.3424 80.4091 67.1841 80.4087 67.0232V32.966C80.4088 32.8025 80.3668 32.6418 80.2867 32.4993C80.2066 32.3568 80.0912 32.2373 79.9515 32.1523L50.454 15.141C50.3149 15.0626 50.158 15.0215 49.9984 15.0215C49.8387 15.0215 49.6818 15.0626 49.5427 15.141L20.0624 32.1581C19.9218 32.2413 19.805 32.3593 19.7234 32.5009C19.6418 32.6424 19.5982 32.8026 19.5967 32.966V67.0088C19.5971 67.1694 19.6401 67.327 19.7215 67.4654C19.8028 67.6038 19.9195 67.7181 20.0595 67.7966L28.1498 72.4656C32.5342 74.6563 35.2194 72.0746 35.2194 69.4813V35.8697C35.2194 35.641 35.3103 35.4216 35.472 35.2598C35.6338 35.0981 35.8532 35.0072 36.0819 35.0072H39.8194C40.0482 35.0072 40.2675 35.0981 40.4293 35.2598C40.591 35.4216 40.6819 35.641 40.6819 35.8697V69.4842C40.6819 75.3348 37.4964 78.6842 31.9477 78.6842C29.5539 78.7259 27.1976 78.0858 25.154 76.8385L17.4002 72.3908C16.4589 71.8427 15.6778 71.0572 15.135 70.1128C14.5921 69.1684 14.3065 68.0981 14.3067 67.0088V32.966C14.3039 31.875 14.5883 30.8025 15.1313 29.8563C15.6743 28.91 16.4568 28.1234 17.4002 27.5753L46.9005 10.5438C47.8508 10.024 48.9166 9.75146 49.9998 9.75146C51.083 9.75146 52.1488 10.024 53.099 10.5438L82.5965 27.5753C83.5377 28.1224 84.319 28.9068 84.8623 29.8502C85.4056 30.7936 85.692 31.8629 85.6929 32.9516V67.0088C85.6913 68.0981 85.4047 69.168 84.8615 70.1122C84.3183 71.0564 83.5374 71.8419 82.5965 72.3908L53.099 89.4223C52.1567 89.966 51.0877 90.2516 49.9998 90.2503Z" fill="#83CD29"/>
<path d="M44.4043 55.6146C44.4043 55.3858 44.4952 55.1665 44.6569 55.0047C44.8187 54.843 45.038 54.7521 45.2668 54.7521H49.0819C49.2858 54.7528 49.4828 54.8256 49.638 54.9577C49.7933 55.0898 49.8968 55.2726 49.93 55.4737C50.505 59.3578 52.23 61.3157 60.0299 61.3157C66.2428 61.3157 68.8907 59.9098 68.8907 56.6122C68.8907 54.7118 68.1403 53.3002 58.4832 52.3544C50.4102 51.5551 45.4192 49.7669 45.4192 43.3154C45.4192 37.3641 50.436 33.8135 58.8454 33.8135C68.2955 33.8135 72.9732 37.0939 73.5654 44.1319C73.5745 44.2493 73.5593 44.3675 73.521 44.4789C73.4826 44.5903 73.4218 44.6927 73.3423 44.7797C73.2629 44.8667 73.1664 44.9365 73.0589 44.9848C72.9514 45.0331 72.8351 45.0589 72.7173 45.0605H68.8763C68.6836 45.0578 68.4974 44.9906 68.3473 44.8697C68.1972 44.7488 68.092 44.5812 68.0483 44.3935C67.1312 40.3081 64.8858 39.0029 58.8483 39.0029C52.0633 39.0029 51.2755 41.3661 51.2755 43.1371C51.2755 45.2819 52.207 45.9086 61.3668 47.119C70.4317 48.3179 74.7384 50.0141 74.7384 56.3851C74.7384 62.8136 69.3794 66.4936 60.0328 66.4936C47.1097 66.5108 44.4043 60.5855 44.4043 55.6146Z" fill="#83CD29"/>
</svg>
