<svg width="100" height="100" viewBox="0 0 100 100" fill="none" xmlns="http://www.w3.org/2000/svg">
<path d="M4 50.5001C4 63.7185 24.3712 74.4352 49.5 74.4352C74.6288 74.4352 95 63.7185 95 50.5001C95 37.2816 74.6281 26.5649 49.5 26.5649C24.3712 26.5649 4 37.2816 4 50.5001Z" fill="url(#paint0_radial_6530_359)"/>
<path d="M49.5 72.6579C73.647 72.6579 93.2227 62.7367 93.2227 50.5001C93.2227 38.262 73.647 28.3423 49.5 28.3423C25.353 28.3423 5.77734 38.262 5.77734 50.5001C5.77734 62.7367 25.353 72.6579 49.5 72.6579Z" fill="#777BB3"/>
<path d="M28.7203 53.2473C30.706 53.2473 32.1876 52.8812 33.1253 52.1596C34.0538 51.4444 34.6943 50.2066 35.0306 48.4805C35.3434 46.8666 35.224 45.7405 34.6751 45.1319C34.1149 44.5106 32.9028 44.1956 31.0728 44.1956H27.8992L26.141 53.2473H28.7203ZM18.3414 64.3969C18.2685 64.3968 18.1967 64.3806 18.1308 64.3495C18.065 64.3183 18.0069 64.2729 17.9607 64.2167C17.9145 64.1604 17.8813 64.0946 17.8636 64.024C17.8458 63.9534 17.8439 63.8797 17.8579 63.8083L22.5195 39.8227C22.5416 39.7105 22.6018 39.6095 22.6899 39.5368C22.7781 39.4641 22.8887 39.4242 23.003 39.4238H33.0514C36.2093 39.4238 38.5597 40.2812 40.0377 41.9725C41.5222 43.6717 41.9815 46.0491 41.4006 49.0357C41.1639 50.2521 40.7572 51.3818 40.192 52.3942C39.6037 53.4355 38.853 54.3763 37.9682 55.181C36.8798 56.1991 35.6477 56.9385 34.309 57.3729C32.9924 57.8023 31.3003 58.0198 29.2827 58.0198H25.2133L24.0516 63.9974C24.0297 64.1099 23.9693 64.2113 23.8809 64.2841C23.7924 64.357 23.6814 64.3969 23.5667 64.3969H18.3414Z" fill="black"/>
<path d="M28.3066 44.689H31.0728C33.2817 44.689 34.0488 45.1739 34.3097 45.4632C34.7413 45.9424 34.8237 46.954 34.545 48.3866C34.2329 49.9912 33.6542 51.1294 32.8246 51.7678C31.9757 52.4219 30.5936 52.7532 28.7203 52.7532H26.7397L28.3073 44.6897L28.3066 44.689ZM33.0514 38.9304H23.0037C22.7745 38.9304 22.5525 39.0101 22.3757 39.1557C22.1988 39.3013 22.078 39.5039 22.034 39.7288L17.3723 63.7151C17.3448 63.858 17.3492 64.0052 17.3851 64.1462C17.4211 64.2872 17.4877 64.4185 17.5803 64.5308C17.6728 64.643 17.789 64.7335 17.9206 64.7956C18.0522 64.8578 18.1958 64.8901 18.3414 64.8903H23.5667C23.7959 64.8901 24.0178 64.8103 24.1945 64.6645C24.3713 64.5187 24.4919 64.3161 24.5357 64.0912L25.6199 58.5132H29.282C31.3522 58.5132 33.0954 58.2871 34.4626 57.8421C35.8681 57.3856 37.1613 56.6114 38.3059 55.5407C39.2275 54.7013 40.0096 53.7205 40.6228 52.6351C41.2136 51.578 41.6388 50.3978 41.8848 49.1295C42.4962 45.985 41.9992 43.4676 40.4088 41.6476C38.8334 39.844 36.3579 38.9297 33.0514 38.9297V38.9304ZM25.5417 53.7399H28.7203C30.8268 53.7399 32.3959 53.344 33.4267 52.5491C34.4583 51.7557 35.1529 50.4305 35.5155 48.5743C35.8603 46.7912 35.7032 45.5336 35.0427 44.8006C34.3808 44.0683 33.0585 43.7015 31.0728 43.7015H27.4925L25.5417 53.7399ZM33.0521 39.9158C36.075 39.9158 38.2796 40.7099 39.6659 42.296C41.0522 43.8828 41.4689 46.0974 40.9172 48.9404C40.6882 50.112 40.3036 51.1827 39.7619 52.1524C39.2187 53.1236 38.5106 54.0108 37.6355 54.8163C36.5918 55.7924 35.4337 56.4884 34.1576 56.9029C32.8822 57.3181 31.257 57.525 29.2827 57.525H24.8066L23.5675 63.9021H18.3421L23.0044 39.9158H33.0521Z" fill="white"/>
<path d="M53.381 58.0195C53.3081 58.0196 53.2361 58.0035 53.1702 57.9725C53.1043 57.9415 53.0461 57.8962 52.9997 57.84C52.9533 57.7838 52.92 57.718 52.9021 57.6474C52.8842 57.5768 52.8821 57.5031 52.8961 57.4315L54.9578 46.8187C55.1548 45.8091 55.1064 45.0854 54.8227 44.7783C54.6486 44.5913 54.1267 44.2778 52.5833 44.2778H48.8466L46.2545 57.6207C46.2323 57.733 46.1717 57.8341 46.0831 57.9068C45.9945 57.9794 45.8835 58.019 45.769 58.0188H40.5862C40.5134 58.0188 40.4415 58.0028 40.3756 57.9718C40.3097 57.9408 40.2515 57.8956 40.2051 57.8395C40.1587 57.7834 40.1253 57.7178 40.1072 57.6472C40.0892 57.5767 40.0869 57.503 40.1007 57.4315L44.763 33.4452C44.7851 33.3329 44.8455 33.2316 44.9339 33.1589C45.0224 33.0861 45.1333 33.0464 45.2478 33.0464H50.4306C50.5034 33.0463 50.5753 33.0624 50.6412 33.0934C50.7071 33.1244 50.7653 33.1695 50.8117 33.2256C50.8581 33.2817 50.8915 33.3474 50.9096 33.4179C50.9276 33.4885 50.9299 33.5621 50.9161 33.6336L49.7914 39.4235H53.8104C56.8724 39.4235 58.9483 39.9624 60.1576 41.0736C61.3897 42.2061 61.775 44.0169 61.3008 46.4575L59.1317 57.6207C59.1095 57.7329 59.049 57.8339 58.9606 57.9065C58.8722 57.9791 58.7613 58.0188 58.6469 58.0188H53.381V58.0195Z" fill="black"/>
<path d="M50.4314 32.5522H45.248C45.0187 32.5523 44.7966 32.632 44.6197 32.7778C44.4428 32.9236 44.3221 33.1263 44.2782 33.3513L39.6166 57.3369C39.589 57.4799 39.5932 57.6272 39.6291 57.7682C39.665 57.9093 39.7316 58.0407 39.8242 58.1531C39.9168 58.2654 40.0331 58.3559 40.1647 58.4181C40.2963 58.4803 40.44 58.5127 40.5856 58.5128H45.7691C45.9983 58.5128 46.2204 58.433 46.3973 58.2873C46.5742 58.1415 46.6949 57.9387 46.7388 57.7137L49.2534 44.7711H52.582C54.1233 44.7711 54.4475 45.1003 54.4596 45.1152C54.5534 45.2148 54.6764 45.6804 54.4731 46.7248L52.4114 57.3369C52.3837 57.4799 52.388 57.6273 52.4239 57.7684C52.4598 57.9095 52.5265 58.041 52.6192 58.1534C52.7118 58.2657 52.8282 58.3562 52.9599 58.4184C53.0916 58.4805 53.2354 58.5128 53.3811 58.5128H58.6477C58.8768 58.5126 59.0987 58.4328 59.2755 58.287C59.4523 58.1413 59.5729 57.9386 59.6167 57.7137L61.7858 46.552C62.2941 43.9315 61.859 41.9665 60.4919 40.7103C59.1866 39.5116 57.0012 38.9294 53.8105 38.9294H50.3909L51.4011 33.7288C51.4289 33.5858 51.4247 33.4384 51.3888 33.2972C51.353 33.1559 51.2863 33.0244 51.1936 32.912C51.101 32.7995 50.9846 32.7089 50.8528 32.6468C50.721 32.5846 50.5771 32.5523 50.4314 32.5522ZM50.4314 33.5404L49.1922 39.9161H53.8105C56.7161 39.9161 58.7209 40.4237 59.8229 41.4375C60.927 42.4513 61.2568 44.0929 60.8168 46.3643L58.647 57.5253H53.3811L55.4435 46.9125C55.6781 45.7053 55.5914 44.882 55.184 44.4427C54.7767 44.004 53.9093 43.7843 52.5834 43.7843H48.4394L45.7691 57.5246H40.5849L45.2472 33.5383H50.4314V33.5404Z" fill="white"/>
<path d="M69.5028 53.2473C71.4885 53.2473 72.9708 52.8812 73.9092 52.1596C74.8363 51.4444 75.4775 50.2066 75.8138 48.4805C76.1266 46.8666 76.0079 45.7405 75.4583 45.1319C74.8981 44.5106 73.686 44.1956 71.856 44.1956H68.6831L66.9235 53.2473H69.5028ZM59.126 64.3969C59.053 64.397 58.981 64.381 58.915 64.3499C58.849 64.3188 58.7908 64.2735 58.7444 64.2172C58.698 64.1609 58.6647 64.0951 58.6469 64.0243C58.629 63.9536 58.627 63.8798 58.6411 63.8083L63.3027 39.8227C63.3248 39.7103 63.3852 39.6091 63.4737 39.5363C63.5621 39.4636 63.6731 39.4238 63.7876 39.4238H73.8353C76.9933 39.4238 79.3436 40.2812 80.8209 41.9725C82.3061 43.6717 82.7646 46.0491 82.1838 49.0357C81.9618 50.2122 81.5541 51.3458 80.9759 52.3942C80.3874 53.4353 79.6367 54.3761 78.7521 55.181C77.6644 56.1991 76.4309 56.9385 75.0929 57.3729C73.7763 57.8023 72.0842 58.0198 70.0659 58.0198H65.9972L64.8362 63.9974C64.8143 64.11 64.7538 64.2115 64.6652 64.2844C64.5766 64.3573 64.4654 64.3971 64.3507 64.3969H59.126Z" fill="black"/>
<path d="M69.0888 44.689H71.855C74.0639 44.689 74.831 45.1739 75.0912 45.4632C75.5249 45.9424 75.606 46.954 75.328 48.3866C75.0152 49.9912 74.4365 51.1294 73.6068 51.7678C72.7572 52.4219 71.3752 52.7532 69.5026 52.7532H67.5219L69.0888 44.689ZM73.8336 38.9304H63.7859C63.5569 38.9306 63.3351 39.0103 63.1583 39.1559C62.9816 39.3015 62.8609 39.504 62.8169 39.7288L58.1546 63.7151C58.127 63.858 58.1314 64.0053 58.1674 64.1463C58.2034 64.2874 58.2701 64.4188 58.3627 64.531C58.4554 64.6433 58.5717 64.7337 58.7033 64.7958C58.835 64.8579 58.9787 64.8902 59.1243 64.8903H64.3497C64.5788 64.8901 64.8007 64.8103 64.9775 64.6645C65.1542 64.5187 65.2748 64.3161 65.3187 64.0912L66.4029 58.5132H70.0642C72.1337 58.5132 73.8777 58.2871 75.2441 57.8421C76.6503 57.3856 77.9435 56.6114 79.0888 55.54C80.0101 54.7008 80.792 53.7202 81.4051 52.6351C81.9966 51.578 82.4203 50.3978 82.667 49.1295C83.2784 45.985 82.7822 43.4676 81.1911 41.6476C79.6156 39.844 77.1409 38.9297 73.8329 38.9297L73.8336 38.9304ZM66.3239 53.7399H69.5018C71.6091 53.7399 73.1774 53.344 74.2097 52.5491C75.2405 51.7557 75.9358 50.4305 76.297 48.5743C76.6432 46.7912 76.4861 45.5336 75.8242 44.8006C75.163 44.0683 73.84 43.7015 71.855 43.7015H68.2755L66.3239 53.7399ZM73.8336 39.9158C76.8558 39.9158 79.0618 40.7099 80.4474 42.296C81.8338 43.8828 82.2511 46.0974 81.698 48.9404C81.4705 50.112 81.0851 51.1827 80.5434 52.1524C80.001 53.1236 79.2922 54.0108 78.4163 54.8163C77.3733 55.7924 76.2145 56.4884 74.9384 56.9029C73.6637 57.3181 72.0392 57.525 70.0642 57.525H65.5888L64.3483 63.9021H59.1229L63.7852 39.9158H73.8336Z" fill="white"/>
<defs>
<radialGradient id="paint0_radial_6530_359" cx="0" cy="0" r="1" gradientUnits="userSpaceOnUse" gradientTransform="translate(31.3185 34.9796) scale(59.7482)">
<stop stop-color="#AEB2D5"/>
<stop offset="0.3" stop-color="#AEB2D5"/>
<stop offset="0.75" stop-color="#484C89"/>
<stop offset="1" stop-color="#484C89"/>
</radialGradient>
</defs>
</svg>
