<svg width="100" height="100" viewBox="0 0 100 100" fill="none" xmlns="http://www.w3.org/2000/svg">
<g clip-path="url(#clip0_6530_310)">
<path d="M49.1312 7.02441C27.0984 7.02441 28.4741 16.5791 28.4741 16.5791L28.4986 26.4781H49.524V29.45H20.1476C20.1476 29.45 6.04883 27.8511 6.04883 50.0819C6.04883 72.3135 18.3546 71.5251 18.3546 71.5251H25.6986V61.2088C25.6986 61.2088 25.3027 48.903 37.8079 48.903H58.6614C58.6614 48.903 70.3775 49.0923 70.3775 37.5798V18.5444C70.3775 18.5444 72.1569 7.02441 49.1312 7.02441ZM37.5377 13.6813C38.0346 13.6808 38.5266 13.7784 38.9857 13.9683C39.4449 14.1582 39.862 14.4368 40.2133 14.7881C40.5647 15.1395 40.8433 15.5566 41.0332 16.0157C41.2231 16.4748 41.3206 16.9669 41.3202 17.4637C41.3206 17.9606 41.2231 18.4526 41.0332 18.9117C40.8433 19.3709 40.5647 19.788 40.2133 20.1393C39.862 20.4907 39.4449 20.7693 38.9857 20.9592C38.5266 21.1491 38.0346 21.2466 37.5377 21.2462C37.0409 21.2466 36.5488 21.1491 36.0897 20.9592C35.6306 20.7693 35.2135 20.4907 34.8621 20.1393C34.5108 19.788 34.2322 19.3709 34.0423 18.9117C33.8524 18.4526 33.7548 17.9606 33.7553 17.4637C33.7548 16.9669 33.8524 16.4748 34.0423 16.0157C34.2322 15.5566 34.5108 15.1395 34.8621 14.7881C35.2135 14.4368 35.6306 14.1582 36.0897 13.9683C36.5488 13.7784 37.0409 13.6808 37.5377 13.6813Z" fill="url(#paint0_linear_6530_310)"/>
<path d="M49.7571 93.363C71.7898 93.363 70.4141 83.8083 70.4141 83.8083L70.3897 73.9097H49.3639V70.9377H78.7403C78.7403 70.9377 92.8391 72.5367 92.8391 50.3051C92.8391 28.0739 80.5333 28.8623 80.5333 28.8623H73.1893V39.1783C73.1893 39.1783 73.5852 51.484 61.08 51.484H40.2265C40.2265 51.484 28.5104 51.2948 28.5104 62.8076V81.8433C28.5104 81.8433 26.7313 93.363 49.7567 93.363H49.7571ZM61.3505 86.7068C60.8537 86.7073 60.3616 86.6097 59.9025 86.4198C59.4434 86.2299 59.0262 85.9513 58.6749 85.5999C58.3236 85.2486 58.045 84.8315 57.8551 84.3724C57.6651 83.9132 57.5676 83.4212 57.568 82.9243C57.5676 82.4275 57.6651 81.9354 57.855 81.4762C58.0449 81.0171 58.3235 80.5999 58.6748 80.2485C59.0261 79.8972 59.4433 79.6185 59.9024 79.4286C60.3615 79.2386 60.8536 79.1411 61.3505 79.1415C61.8474 79.1411 62.3394 79.2386 62.7985 79.4286C63.2576 79.6185 63.6748 79.8971 64.0261 80.2484C64.3774 80.5997 64.656 81.0169 64.846 81.476C65.0359 81.9351 65.1334 82.4272 65.133 82.924C65.1334 83.4209 65.0359 83.9129 64.846 84.372C64.656 84.8311 64.3774 85.2483 64.0261 85.5996C63.6748 85.9509 63.2576 86.2295 62.7985 86.4195C62.3394 86.6094 61.8474 86.7073 61.3505 86.7068Z" fill="url(#paint1_linear_6530_310)"/>
</g>
<defs>
<linearGradient id="paint0_linear_6530_310" x1="840.098" y1="783.589" x2="5141.15" y2="5041.73" gradientUnits="userSpaceOnUse">
<stop stop-color="#387EB8"/>
<stop offset="1" stop-color="#366994"/>
</linearGradient>
<linearGradient id="paint1_linear_6530_310" x1="1259.57" y1="1356.29" x2="5878.4" y2="5722.62" gradientUnits="userSpaceOnUse">
<stop stop-color="#FFE052"/>
<stop offset="1" stop-color="#FFC331"/>
</linearGradient>
<clipPath id="clip0_6530_310">
<rect width="87" height="86.6602" fill="white" transform="translate(6 7)"/>
</clipPath>
</defs>
</svg>
